Coordinates
version=1
nRows=22
nColumns=24
inDegrees=yes

Units are S.I. units (second, meters, Newtons, ...)
Angles are in degrees.

endheader
time	pelvis_tilt	pelvis_list	pelvis_rotation	pelvis_tx	pelvis_ty	pelvis_tz	hip_flexion_r	hip_adduction_r	hip_rotation_r	knee_angle_r	ankle_angle_r	subtalar_angle_r	mtp_angle_r	hip_flexion_l	hip_adduction_l	hip_rotation_l	knee_angle_l	ankle_angle_l	subtalar_angle_l	mtp_angle_l	lumbar_extension	lumbar_bending	lumbar_rotation
      6.64000000	    -11.02713070	      1.76554450	     -5.51409039	     -1.09657260	     -0.02883762	     -0.28412951	     -4.49063476	      2.30652696	      8.31554495	    -15.10655338	      8.59247924	      6.99429755	     19.68759578	     33.85576946	      0.09213416	     -1.93344867	     -7.45311917	     -1.11815614	      2.27211583	      9.18138133	      8.02963375	     -1.23206333	     12.91337700
      6.64500000	    -11.09489330	      1.89340422	     -5.55915167	     -1.08985578	     -0.02969380	     -0.28453034	     -4.48074228	      2.06053545	      8.05797786	    -15.75419645	      8.36948209	      7.68248284	     20.21116210	     33.90356374	      0.25790891	     -1.89816518	     -8.09175316	     -1.52091926	      1.98590602	      9.33536490	      8.25936094	     -1.37106686	     12.96734794
      6.65000000	    -11.15143524	      2.01270336	     -5.55493668	     -1.08319599	     -0.03049427	     -0.28502349	     -4.45478578	      1.81246177	      7.69691722	    -16.42914569	      8.05682797	      8.42561718	     20.95403740	     33.95373793	      0.44986874	     -1.74402447	     -8.73376031	     -2.05485089	      1.62164096	      9.62010698	      8.46056015	     -1.51010463	     12.93647209
      6.65500000	    -11.23813393	      2.22678250	     -5.56600966	     -1.07645799	     -0.03120648	     -0.28546125	     -4.36853464	      1.46289212	      7.36847626	    -17.14093121	      7.71982681	      9.17893966	     21.56768951	     34.03406370	      0.71725816	     -1.68169306	     -9.36477502	     -2.63355450	      1.33447122	      9.81544713	      8.72230073	     -1.74980501	     12.98136978
      6.66000000	    -11.32621951	      2.46965988	     -5.51495852	     -1.06975399	     -0.03183335	     -0.28598192	     -4.24619669	      1.07160151	      6.90895331	    -17.89602740	      7.33552958	     10.02071969	     22.24419502	     34.13169003	      1.05233786	     -1.50886095	     -9.99950939	     -3.26956259	      1.05020633	     10.01866049	      8.97863682	     -2.03460879	     12.95700941
      6.66500000	    -11.41793634	      2.76195494	     -5.43452351	     -1.06306689	     -0.03235231	     -0.28652586	     -4.08371302	      0.61903176	      6.38669031	    -18.69356270	      6.87679228	     10.90856439	     22.96510346	     34.24466785	      1.45582827	     -1.27283439	    -10.64350941	     -3.92545298	      0.79089597	     10.19652790	      9.23877828	     -2.38062319	     12.91644168
      6.67000000	    -11.51701483	      3.12073983	     -5.32767768	     -1.05636596	     -0.03277276	     -0.28704523	     -3.87925031	      0.09205782	      5.85209669	    -19.54254378	      6.38471331	     11.84726391	     23.63405872	     34.37190523	      1.93664714	     -0.98970333	    -11.30124082	     -4.53243245	      0.64013924	     10.30473964	      9.51598437	     -2.81800303	     12.81269269
      6.67500000	    -11.60135637	      3.45970502	     -5.16583393	     -1.04976063	     -0.03306288	     -0.28769795	     -3.65661922	     -0.44206329	      5.11717923	    -20.40924639	      5.72974756	     12.87101682	     24.52677116	     34.51541790	      2.45371848	     -0.55954584	    -12.01718980	     -5.18433710	      0.38878817	     10.36328833	      9.75232004	     -3.22969478	     12.76653535
      6.68000000	    -11.68961909	      3.87367909	     -4.99829939	     -1.04309047	     -0.03326111	     -0.28825984	     -3.39360718	     -1.05524053	      4.43715811	    -21.34309459	      5.01572387	     13.89688304	     25.29511776	     34.65779366	      3.04037683	     -0.14874754	    -12.74516203	     -5.71432901	      0.30340790	     10.33613382	     10.00781404	     -3.74625730	     12.61167864
      6.68500000	    -11.76578697	      4.26463855	     -4.77232487	     -1.03648475	     -0.03336371	     -0.28892062	     -3.12350980	     -1.66799196	      3.62114734	    -22.28525986	      4.15476792	     14.98911844	     26.25994020	     34.80938835	      3.66091661	      0.43107213	    -13.53229412	     -6.25106383	      0.13141339	     10.15292914	     10.22871967	     -4.24228803	     12.54056375
      6.69000000	    -11.82495126	      4.67783892	     -4.56306800	     -1.02985977	     -0.03337901	     -0.28951033	     -2.82094054	     -2.31906634	      2.78008335	    -23.29743412	      3.14585695	     16.05674692	     27.27771188	     34.92162508	      4.30140832	      1.04557248	    -14.30952953	     -6.65630496	     -0.00340026	      9.82555271	     10.43540795	     -4.77209798	     12.39582271
      6.69500000	    -11.87236222	      5.08234958	     -4.32299415	     -1.02315763	     -0.03330810	     -0.29011768	     -2.52600244	     -2.97690306	      1.92053350	    -24.31531650	      1.98932624	     17.15543814	     28.27645581	     35.00960831	      4.96083852	      1.68714997	    -15.09504356	     -6.97584719	     -0.10472159	      9.36184007	     10.63772574	     -5.30070031	     12.24840980
      6.70000000	    -11.89656992	      5.50390166	     -4.05205364	     -1.01637512	     -0.03311316	     -0.29072809	     -2.26486563	     -3.65346680	      1.10040441	    -25.26916279	      0.43615631	     17.98648939	     29.84960387	     35.03632333	      5.68192153	      2.45895791	    -15.85913644	     -7.20386959	     -0.36641255	      8.29063791	     10.82199713	     -5.86401430	     12.07290843
      6.70500000	    -11.90931397	      5.87291322	     -3.80208404	     -1.00960503	     -0.03292584	     -0.29129439	     -1.95502239	     -4.30580867	      0.19978505	    -26.35693686	     -1.02706330	     19.04619056	     30.82976903	     35.04917853	      6.32467657	      3.09392402	    -16.63055742	     -7.27228212	     -0.37716989	      7.54285810	     10.98691376	     -6.36521758	     11.92902026
      6.71000000	    -11.89006682	      6.20116082	     -3.57945026	     -1.00287992	     -0.03271589	     -0.29170517	     -1.62358660	     -4.91492275	     -0.66460414	    -27.57048371	     -2.42676438	     20.08112525	     31.04803094	     35.01574528	      6.88254163	      3.53362446	    -17.35979827	     -7.33042118	     -0.21109402	      7.41162537	     11.10376544	     -6.83662934	     11.78639849
      6.71500000	    -11.86513073	      6.51221366	     -3.31581818	     -0.99598241	     -0.03238198	     -0.29239469	     -1.33501274	     -5.53943901	     -1.52427645	    -28.63788177	     -4.39890502	     20.92195372	     32.32011720	     34.87071266	      7.53485472	      4.41746826	    -17.98870037	     -7.30570391	     -0.67832749	      6.16748131	     11.24223197	     -7.26171347	     11.64233120
      6.72000000	    -11.86230724	      6.72350656	     -3.06620653	     -0.98918958	     -0.03215832	     -0.29298642	     -0.95535693	     -6.06567156	     -2.35783802	    -29.87941044	     -6.12595028	     21.93537072	     32.54287850	     34.76623861	      8.02937531	      4.98818269	    -18.61490659	     -7.22110164	     -0.77711141	      5.90124000	     11.37933303	     -7.58517434	     11.47779557
      6.72500000	    -11.85674656	      6.94624834	     -2.80169399	     -0.98236676	     -0.03188790	     -0.29360597	     -0.55505717	     -6.60553450	     -3.16334234	    -31.14133373	     -8.04502374	     22.64197834	     32.68770860	     34.59423908	      8.55441991	      5.59819292	    -19.13332163	     -7.18462169	     -1.08043286	      5.57380600	     11.51879199	     -7.92287907	     11.29369651
      6.73000000	    -11.83549776	      7.10682733	     -2.56714517	     -0.97566454	     -0.03159726	     -0.29427201	     -0.12530932	     -7.08588196	     -3.88239566	    -32.43959973	    -10.09026421	     23.17360152	     32.80644951	     34.36780997	      9.01561624	      6.22412194	    -19.59303957	     -7.07505404	     -1.46847825	      5.21220792	     11.61765172	     -8.17327578	     11.14848762
      6.73500000	    -11.82278657	      7.25199911	     -2.34967220	     -0.96896709	     -0.03130070	     -0.29488539	      0.34775082	     -7.54040162	     -4.50895071	    -33.77646962	    -12.17729095	     23.49787613	     32.67078606	     34.10838076	      9.43496981	      6.72769876	    -19.97305275	     -6.91497141	     -1.80718767	      5.01273389	     11.73243104	     -8.40772241	     11.00401136
      6.74000000	    -11.78960855	      7.40460031	     -2.19645452	     -0.96241420	     -0.03100687	     -0.29542630	      0.87625353	     -8.00734564	     -5.05688411	    -35.20512703	    -14.20364298	     23.62045822	     32.29410349	     33.80448386	      9.80873878	      7.05980086	    -20.28193258	     -6.70539292	     -2.07199915	      5.01133857	     11.81038627	     -8.63354852	     10.95208223
      6.74500000	    -11.83015321	      7.47259553	     -1.93579126	     -0.95591477	     -0.03076030	     -0.29627310	      1.47389076	     -8.37942570	     -5.57459227	    -36.61682081	    -16.27429905	     23.60829848	     31.87753490	     33.52188824	     10.19321149	      7.66507146	    -20.51598402	     -6.56823581	     -2.61945497	      4.91441470	     11.94691333	     -8.76241788	     10.72569186
